# xmcd
#
# Track frame offsets: 
#        155
#        13505
#        25705
#        38977
#        52457
#        65890
#        77950
#        91252
#        102062
#        113897
#        126875
#        139557
#        153500
#        166375
#        178460
#        192057
#        202555
#        215735
#        226100
#
# Disc length: 3260 seconds
#
# Revision: 0
# Processed by: cddbd v1.5.1PL0 Copyright (c) Steve Scherf et al.
# Submitted via: ExactAudioCopy v0.95b2
#
DISCID=060cba13
DTITLE=Howlin' Wolf - The Chess Masters
DYEAR=1900
DGENRE=Blues
TTITLE0=Moanin' At Midnight
TTITLE1=How Many More Tears
TTITLE2=The Wolf Is At Your Door
TTITLE3=My Baby Walked Off
TTITLE4=Everybody's In The Mood
TTITLE5=Dorothy Mae
TTITLE6=My Last Affair
TTITLE7=Hold Your Money
TTITLE8=Streamline Woman
TTITLE9=Evil
TTITLE10=Forty Four
TTITLE11=Smokestack Lightnin'
TTITLE12=I Asked For Water
TTITLE13=Going Back Home
TTITLE14=My Life
TTITLE15=Who's Been Talking
TTITLE16=Tell Me
TTITLE17=Somebody In My Home
TTITLE18=Poor Boy
EXTD=
EXTT0=
EXTT1=
EXTT2=
EXTT3=
EXTT4=
EXTT5=
EXTT6=
EXTT7=
EXTT8=
EXTT9=
EXTT10=
EXTT11=
EXTT12=
EXTT13=
EXTT14=
EXTT15=
EXTT16=
EXTT17=
EXTT18=
PLAYORDER=
